# xmcd
#
# Track frame offsets: 
#        150
#        18007
#        30065
#        45275
#        62770
#        76022
#        88930
#        99550
#        118847
#        129727
#        143147
#        152130
#        164150
#
# Disc length: 2410 seconds
#
# Revision: 5
# Processed by: cddbd v1.5.1PL0 Copyright (c) Steve Scherf et al.
# Submitted via: ExactAudioCopy v0.95a5
#
DISCID=9d09680d
DTITLE=Various Artist - The Best of Kicking Mule- Country Blues Volum
DTITLE=e 1
DYEAR=1994
DGENRE=Blues
TTITLE0=George Gritzbach - The Sweeper and the Debutante
TTITLE1=Nick Katzman and Ruby Green - Moon's Going Down
TTITLE2=Del Rey and the Blue Gators - Strange Man
TTITLE3=George Gritzbach - Kind Hearted Woman
TTITLE4=Catfish Keith - She's a Hum Dum Dinger From Dingersville
TTITLE5=Del Rey and the Blue Gators - Nothin' In Ramblin'
TTITLE6=Nick Katzman and Ruby Green - I Had a Notion
TTITLE7=Catfish Keith - Willie Mae
TTITLE8=Del Rey and the Blue Gators - Use Your Good Judgement
TTITLE9=Charlie Musselwhite - Shelby County Blues
TTITLE10=George Gritzbach - Skippin' Through the Grass
TTITLE11=George Gritzbach - Poor Boy
TTITLE12=Charlie Musselwhite - Hard Times
EXTD=LABEL =Laserlight Digital - Delta Music Inc.\nID =12352\nUPC =0
EXTD=18111-235228\nCOPYRIGHT =1994
EXTT0=
EXTT1=
EXTT2=
EXTT3=
EXTT4=
EXTT5=
EXTT6=
EXTT7=
EXTT8=
EXTT9=
EXTT10=
EXTT11=
EXTT12=
PLAYORDER=
